# xmcd
#
# Track frame offsets: 
#        150
#        19942
#        37742
#        56897
#        77667
#        94230
#        113742
#        131457
#        146517
#        163405
#        181455
#        200745
#        217560
#        242355
#
# Disc length: 4090 seconds
#
# Revision: 8
# Processed by: cddbd v1.5.2PL0 Copyright (c) Steve Scherf et al.
# Submitted via: ExactAudioCopy v0.99pb5
#
DISCID=bb0ff80e
DTITLE=GOTTHARD - OPEN
DYEAR=1999
DGENRE=Hard Rock
TTITLE0=Free And Alive
TTITLE1=Vision
TTITLE2=Got To Be Love
TTITLE3=Let It Rain
TTITLE4=Blackberry Way
TTITLE5=You
TTITLE6=Cheat and Hide
TTITLE7=Want You In
TTITLE8=Tell No Lies
TTITLE9=Back To You
TTITLE10=Best Time
TTITLE11=Hey Jimi
TTITLE12=Peace Of Mind
TTITLE13=Film (QuickTime)
EXTD=\n\n YEAR: 1999
EXTT0=
EXTT1=
EXTT2=
EXTT3=
EXTT4=
EXTT5=
EXTT6=
EXTT7=
EXTT8=
EXTT9=
EXTT10=
EXTT11=
EXTT12=
EXTT13=
PLAYORDER=
